<svg xmlns="http://www.w3.org/2000/svg" width="1280" height="400" viewBox="0 0 1280 400" xmlns:c2pa="http://c2pa.org/manifest"><metadata><c2pa:manifest>AAAWgmp1bWIAAAAeanVtZGMycGEAEQAQgAAAqgA4m3EDYzJwYQAAABZcanVtYgAAAEdqdW1kYzJtYQARABCAAACqADibcQN1cm46YzJwYTo1ZWIwNjYxYS1mNzJlLTRiNWUtYWJhMy1kZGQ1NjExZmE4ODgAAAADl2p1bWIAAAApanVtZGMyYXMAEQAQgAAAqgA4m3EDYzJwYS5hc3NlcnRpb25zAAAAALxqdW1iAAAARGp1bWRjYm9yABEAEIAAAKoAOJtxE2MycGEuaW5ncmVkaWVudC52MwAAAAAYYzJzaJqXWPkIJbQMliNZ58zJ+GQAAABwY2JvcqNpZGM6Zm9ybWF0bWltYWdlL3N2Zyt4bWxqaW5zdGFuY2VJRHgseG1wOmlpZDpkOTU4YjUzYS0xNmZkLTQzMjItYmUzOS1mODNiMDAxNWRlMjVscmVsYXRpb25zaGlwaHBhcmVudE9mAAAB4mp1bWIAAABBanVtZGNib3IAEQAQgAAAqgA4m3ETYzJwYS5hY3Rpb25zLnYyAAAAABhjMnNoosjiBBi5y/7WlFadOCRelgAAAZljYm9yomdhY3Rpb25zgqJmYWN0aW9ua2MycGEub3BlbmVkanBhcmFtZXRlcnOha2luZ3JlZGllbnRzgaJjdXJseC1zZWxmI2p1bWJmPWMycGEuYXNzZXJ0aW9ucy9jMnBhLmluZ3JlZGllbnQudjNkaGFzaFgg8pxc/Fut1uW7/ApxTa7zo9fMI+PV/yGQ0U6ExHGFilykZmFjdGlvbngdY29tLmFudGhyb3BpYy5jbGF1ZGUucHJvdmlkZWRqcGFyYW1ldGVyc6F4H2NvbS5hbnRocm9waWMub3JpZ2luLWNvbmZpZGVuY2VndW5rbm93bmtkZXNjcmlwdGlvbnhmQ2xhdWRlIHByb3ZpZGVkIHRoaXMgZmlsZSBhdCB0aGUgcmVxdWVzdCBvZiBhIHVzZXIgYW5kIG1heSBoYXZlIGNyZWF0ZWQgb3IgbW9kaWZpZWQgdGhlIGZpbGUgY29udGVudHMubXNvZnR3YXJlQWdlbnShZG5hbWVmQ2xhdWRlcmFsbEFjdGlvbnNJbmNsdWRlZPUAAADIanVtYgAAAEBqdW1kY2JvcgARABCAAACqADibcRNjMnBhLmhhc2guZGF0YQAAAAAYYzJzaFOu0xqHpN5bS9J64YF92BkAAACAY2JvcqVjYWxnZnNoYTI1NmNwYWRNAAAAAAAAAAAAAAAAAGRoYXNoWCCvpj4Vg9zn3hd9h5uuyf3xMvTWs1ASiugXy4JISUjzg2RuYW1lbmp1bWJmIG1hbmlmZXN0amV4Y2x1c2lvbnOBomVzdGFydBiYZmxlbmd0aBkeBAAAAj5qdW1iAAAAJ2p1bWRjMmNsABEAEIAAAKoAOJtxA2MycGEuY2xhaW0udjIAAAACD2Nib3KlY2FsZ2ZzaGEyNTZpc2lnbmF0dXJleE1zZWxmI2p1bWJmPS9jMnBhL3VybjpjMnBhOjVlYjA2NjFhLWY3MmUtNGI1ZS1hYmEzLWRkZDU2MTFmYTg4OC9jMnBhLnNpZ25hdHVyZWppbnN0YW5jZUlEeCx4bXA6aWlkOjhkNGJjODg3LWYzZmEtNGJjZS1hYTMxLThiNDI5NjRlNTEzMHJjcmVhdGVkX2Fzc2VydGlvbnODomN1cmx4LXNlbGYjanVtYmY9YzJwYS5hc3NlcnRpb25zL2MycGEuaW5ncmVkaWVudC52M2RoYXNoWCDynFz8W63W5bv8CnFNrvOj18wj49X/IZDRToTEcYWKXKJjdXJseCpzZWxmI2p1bWJmPWMycGEuYXNzZXJ0aW9ucy9jMnBhLmFjdGlvbnMudjJkaGFzaFggew3kQhQTjLoJ0WVNDibrsGNx1VZLaq3GFV5Sdjw20EmiY3VybHgpc2VsZiNqdW1iZj1jMnBhLmFzc2VydGlvbnMvYzJwYS5oYXNoLmRhdGFkaGFzaFggdf5TXIR3lrsdmuC9MFs5OdL/VIUL1sX0FzqM8E3tW310Y2xhaW1fZ2VuZXJhdG9yX2luZm+jZG5hbWVvQW50aHJvcGljIEZpbGVzZ3ZlcnNpb25lMS4wLjBrc3BlY1ZlcnNpb25lMi40LjAAABA4anVtYgAAAChqdW1kYzJjcwARABCAAACqADibcQNjMnBhLnNpZ25hdHVyZQAAABAIY2JvctKEWQISogEmGCFZAgowggIGMIIBjaADAgECAhRA5aAK7sI50L64g/oGQgU9Z1UTADAKBggqhkjOPQQDAzBJMRcwFQYDVQQKEw5BbnRocm9waWMsIFBCQzEuMCwGA1UEAxMlQW50aHJvcGljIENvbnRlbnQgQ3JlZGVudGlhbHMgUm9vdCBDQTAeFw0yNjA4MDcxODQzNTZaFw0yODA4MDYxOTQzNTZaMEQxFzAVBgNVBAoTDkFudGhyb3BpYywgUEJDMSkwJwYDVQQDEyBBbnRocm9waWMgQ2xhdWRlIENvbnRlbnQgU2lnbmluZzBZMBMGByqGSM49AgEGCCqGSM49AwEHA0IABJh6CmvLUBgFFNU0vUKlOVtE6djd17L5SuwX0LemFisBM3dkd/3cyjxFA3Qo5S46fX0/ihY0VZ7mfb9KF703t5OjWDBWMA4GA1UdDwEB/wQEAwIHgDAVBgNVHSUEDjAMBgorBgEEAYPoXgIBMAwGA1UdEwEB/wQCMAAwHwYDVR0jBBgwFoAUzlHiBIFOZFsj+OPEz5o+nMHXXMIwCgYIKoZIzj0EAwMDZwAwZAIwMXMdFJ4BetLLVY7ORuE9noqbbAZOZn/aArXyTwFAZfKrPzxF2vPoJNf1+UCdg1XGAjBwX1zd9WGqYkqmL5SFqw1QySjr1zJfpJM9+1rdDwSPLMOPOjKuiXjoU/pUUeG9RwmhY3BhZFkNngAAAAAAAAAAAAAAAAAAAAAAAAAAAAAAAAAAAAAAAAAAAAAAAAAAAAAAAAAAAAAAAAAAAAAAAAAAAAAAAAAAAAAAAAAAAAAAAAAAAAAAAAAAAAAAAAAAAAAAAAAAAAAAAAAAAAAAAAAAAAAAAAAAAAAAAAAAAAAAAAAAAAAAAAAAAAAAAAAAAAAAAAAAAAAAAAAAAAAAAAAAAAAAAAAAAAAAAAAAAAAAAAAAAAAAAAAAAAAAAAAAAAAAAAAAAAAAAAAAAAAAAAAAAAAAAAAAAAAAAAAAAAAAAAAAAAAAAAAAAAAAAAAAAAAAAAAAAAAAAAAAAAAAAAAAAAAAAAAAAAAAAAAAAAAAAAAAAAAAAAAAAAAAAAAAAAAAAAAAAAAAAAAAAAAAAAAAAAAAAAAAAAAAAAAAAAAAAAAAAAAAAAAAAAAAAAAAAAAAAAAAAAAAAAAAAAAAAAAAAAAAAAAAAAAAAAAAAAAAAAAAAAAAAAAAAAAAAAAAAAAAAAAAAAAAAAAAAAAAAAAAAAAAAAAAAAAAAAAAAAAAAAAAAAAAAAAAAAAAAAAAAAAAAAAAAAAAAAAAAAAAAAAAAAAAAAAAAAAAAAAAAAAAAAAAAAAAAAAAAAAAAAAAAAAAAAAAAAAAAAAAAAAAAAAAAAAAAAAAAAAAAAAAAAAAAAAAAAAAAAAAAAAAAAAAAAAAAAAAAAAAAAAAAAAAAAAAAAAAAAAAAAAAAAAAAAAAAAAAAAAAAAAAAAAAAAAAAAAAAAAAAAAAAAAAAAAAAAAAAAAAAAAAAAAAAAAAAAAAAAAAAAAAAAAAAAAAAAAAAAAAAAAAAAAAAAAAAAAAAAAAAAAAAAAAAAAAAAAAAAAAAAAAAAAAAAAAAAAAAAAAAAAAAAAAAAAAAAAAAAAAAAAAAAAAAAAAAAAAAAAAAAAAAAAAAAAAAAAAAAAAAAAAAAAAAAAAAAAAAAAAAAAAAAAAAAAAAAAAAAAAAAAAAAAAAAAAAAAAAAAAAAAAAAAAAAAAAAAAAAAAAAAAAAAAAAAAAAAAAAAAAAAAAAAAAAAAAAAAAAAAAAAAAAAAAAAAAAAAAAAAAAAAAAAAAAAAAAAAAAAAAAAAAAAAAAAAAAAAAAAAAAAAAAAAAAAAAAAAAAAAAAAAAAAAAAAAAAAAAAAAAAAAAAAAAAAAAAAAAAAAAAAAAAAAAAAAAAAAAAAAAAAAAAAAAAAAAAAAAAAAAAAAAAAAAAAAAAAAAAAAAAAAAAAAAAAAAAAAAAAAAAAAAAAAAAAAAAAAAAAAAAAAAAAAAAAAAAAAAAAAAAAAAAAAAAAAAAAAAAAAAAAAAAAAAAAAAAAAAAAAAAAAAAAAAAAAAAAAAAAAAAAAAAAAAAAAAAAAAAAAAAAAAAAAAAAAAAAAAAAAAAAAAAAAAAAAAAAAAAAAAAAAAAAAAAAAAAAAAAAAAAAAAAAAAAAAAAAAAAAAAAAAAAAAAAAAAAAAAAAAAAAAAAAAAAAAAAAAAAAAAAAAAAAAAAAAAAAAAAAAAAAAAAAAAAAAAAAAAAAAAAAAAAAAAAAAAAAAAAAAAAAAAAAAAAAAAAAAAAAAAAAAAAAAAAAAAAAAAAAAAAAAAAAAAAAAAAAAAAAAAAAAAAAAAAAAAAAAAAAAAAAAAAAAAAAAAAAAAAAAAAAAAAAAAAAAAAAAAAAAAAAAAAAAAAAAAAAAAAAAAAAAAAAAAAAAAAAAAAAAAAAAAAAAAAAAAAAAAAAAAAAAAAAAAAAAAAAAAAAAAAAAAAAAAAAAAAAAAAAAAAAAAAAAAAAAAAAAAAAAAAAAAAAAAAAAAAAAAAAAAAAAAAAAAAAAAAAAAAAAAAAAAAAAAAAAAAAAAAAAAAAAAAAAAAAAAAAAAAAAAAAAAAAAAAAAAAAAAAAAAAAAAAAAAAAAAAAAAAAAAAAAAAAAAAAAAAAAAAAAAAAAAAAAAAAAAAAAAAAAAAAAAAAAAAAAAAAAAAAAAAAAAAAAAAAAAAAAAAAAAAAAAAAAAAAAAAAAAAAAAAAAAAAAAAAAAAAAAAAAAAAAAAAAAAAAAAAAAAAAAAAAAAAAAAAAAAAAAAAAAAAAAAAAAAAAAAAAAAAAAAAAAAAAAAAAAAAAAAAAAAAAAAAAAAAAAAAAAAAAAAAAAAAAAAAAAAAAAAAAAAAAAAAAAAAAAAAAAAAAAAAAAAAAAAAAAAAAAAAAAAAAAAAAAAAAAAAAAAAAAAAAAAAAAAAAAAAAAAAAAAAAAAAAAAAAAAAAAAAAAAAAAAAAAAAAAAAAAAAAAAAAAAAAAAAAAAAAAAAAAAAAAAAAAAAAAAAAAAAAAAAAAAAAAAAAAAAAAAAAAAAAAAAAAAAAAAAAAAAAAAAAAAAAAAAAAAAAAAAAAAAAAAAAAAAAAAAAAAAAAAAAAAAAAAAAAAAAAAAAAAAAAAAAAAAAAAAAAAAAAAAAAAAAAAAAAAAAAAAAAAAAAAAAAAAAAAAAAAAAAAAAAAAAAAAAAAAAAAAAAAAAAAAAAAAAAAAAAAAAAAAAAAAAAAAAAAAAAAAAAAAAAAAAAAAAAAAAAAAAAAAAAAAAAAAAAAAAAAAAAAAAAAAAAAAAAAAAAAAAAAAAAAAAAAAAAAAAAAAAAAAAAAAAAAAAAAAAAAAAAAAAAAAAAAAAAAAAAAAAAAAAAAAAAAAAAAAAAAAAAAAAAAAAAAAAAAAAAAAAAAAAAAAAAAAAAAAAAAAAAAAAAAAAAAAAAAAAAAAAAAAAAAAAAAAAAAAAAAAAAAAAAAAAAAAAAAAAAAAAAAAAAAAAAAAAAAAAAAAAAAAAAAAAAAAAAAAAAAAAAAAAAAAAAAAAAAAAAAAAAAAAAAAAAAAAAAAAAAAAAAAAAAAAAAAAAAAAAAAAAAAAAAAAAAAAAAAAAAAAAAAAAAAAAAAAAAAAAAAAAAAAAAAAAAAAAAAAAAAAAAAAAAAAAAAAAAAAAAAAAAAAAAAAAAAAAAAAAAAAAAAAAAAAAAAAAAAAAAAAAAAAAAAAAAAAAAAAAAAAAAAAAAAAAAAAAAAAAAAAAAAAAAAAAAAAAAAAAAAAAAAAAAAAAAAAAAAAAAAAAAAAAAAAAAAAAAAAAAAAAAAAAAAAAAAAAAAAAAAAAAAAAAAAAAAAAAAAAAAAAAAAAAAAAAAAAAAAAAAAAAAAAAAAAAAAAAAAAAAAAAAAAAAAAAAAAAAAAAAAAAAAAAAAAAAAAAAAAAAAAAAAAAAAAAAAAAAAAAAAAAAAAAAAAAAAAAAAAAAAAAAAAAAAAAAAAAAAAAAAAAAAAAAAAAAAAAAAAAAAAAAAAAAAAAAAAAAAAAAAAAAAAAAAAAAAAAAAAAAAAAAAAAAAAAAAAAAAAAAAAAAAAAAAAAAAAAAAAAAAAAAAAAAAAAAAAAAAAAAAAAAAAAAAAAAAAAAAAAAAAAAAAAAAAAAAAAAAAAAAAAAAAAAAAAAAAAAAAAAAAAAAAAAAAAAAAAAAAAAAAAAAAAAAAAAAAAAAAAAAAAAAAAAAAAAAAAAAAAAAAAAAAAAAAAAAAAAAAAAAAAAAAAAAAAAAAAAAAAAAAAAAAAAAAAAAAAAAAAAAAAAAAAAAAAAAAAAAAAAAAAAAAAAAAAAAAAAAAAAAAAAAAAAAAAAAAAAAAAAAAAAAAAAAAAAAAAAAAAAAAAAAAAAAAAAAAAAAAAAAAAAAAAAAAAAAAAAAAAAAAAAAAAAAAAAAAAAAAAAAAAAAAAAAAAAAAAAAAAAAAAAAAAAAAAAAAAAAAAAAAAAAAAAAAAAAAAAAAAAAAAAAAAAAAAAAAAAAAAAAAAAAAAAAAAAAAAAAAAAAAAAAAAAAAAAAAAAAAAAAAAAAAAAAAAAAAAAAAAAAAAAAAAAAAAAAAAAAAAAAAAAAAAAAAAAAAAAAAAAAAAAAAAAAAAAAAAAAAAAAAAAAAAAAAAAAAAAAAAAAAAAAAAAAAAAAAAAAAAAAAAAAAAAAAAAAAAAAAAAAAAAAAAAAAAAAAAAAAAAAAAAAAAAAAAAAAAAAAAAAAAAAAAAAAAAAAAAAAAAAAAAAAAAAAAAAAAAAAAAAAAAAAAAAAAAAAAAAAAAAAAAAAAAAAAAAAAAAAAAAAAAAAAAAAAAAAAAAAAAAAAAAAAAAAAAAAAAAAAAAAAAAAAAAAAAAAAAAAAAAAAAAAAAAAAAAAAAAAAAAAAAAAAAAAAAAAAAAAAAAAAAAAAAAAAAAAAAAAAAAAAAAAAAAAAAAAAAAAAAAAAAAAAAAAAAAAAAAAAAAAAAAAAAAAAAAAAAAAAAAAAAAAAAAAAAAAAAAAAAAAAAAAAAAAAAAAAAAAAAAAAAAAAAAAAAAAAAAAAAAAAAAAAAAAAAAAAAAAAAAAAAAAAAAAAAAAAAAAAAAAAAAAAAAAAAAAAAAAAAAAAAAAAAAAAAAAAAAAAAAAAAAAAAAAAAAAAAAAAAAAAAAAAAAAAAAAAAAAAAAAAAAAAAAAAAAAAAAAAAAAAAAAAAAAAAAAAAAAAAAAAAAAAAAAAAAAAAAAAAAAAAAAAAAAAAAAAAAAAAAAAAAAAAAAAAAAAAAAAAAAAAAAAAAAAAAAAAAAAAAAAAAAAAAAAAAAAAAAAAAAAAAAAAAAAAAAAAAAAAAAAAAAAAAAAAAAAAAAAAAAAAAAPZYQJDu4MKA2rfA6P1IwO2bSlhLueus5z6SwLqh320HaWH9GtVkLc3TZoOD0+t6l4iTs4g0RPXiRrWvAkKJIgudR/I=</c2pa:manifest></metadata>
<defs>
<linearGradient id="bg" x1="0" y1="0" x2="0" y2="1"><stop offset="0" stop-color="#070B18"/><stop offset="1" stop-color="#0E1530"/></linearGradient>
<filter id="glow" x="-50%" y="-50%" width="200%" height="200%"><feGaussianBlur stdDeviation="6" result="b"/><feMerge><feMergeNode in="b"/><feMergeNode in="SourceGraphic"/></feMerge></filter>
<filter id="soft" x="-20%" y="-20%" width="140%" height="140%"><feDropShadow dx="0" dy="4" stdDeviation="6" flood-color="#000" flood-opacity=".45"/></filter>
<marker id="ah" viewBox="0 0 10 10" refX="8" refY="5" markerWidth="7" markerHeight="7" orient="auto-start-reverse"><path d="M0 0L10 5L0 10z" fill="#5B6B93"/></marker>
<linearGradient id="road" x1="0" y1="0" x2="0" y2="1"><stop offset="0" stop-color="#1B2238"/><stop offset="1" stop-color="#2A3350"/></linearGradient>
<linearGradient id="lane" x1="0" y1="0" x2="0" y2="1"><stop offset="0" stop-color="#22C55E" stop-opacity=".15"/><stop offset="1" stop-color="#22C55E" stop-opacity=".55"/></linearGradient>
<radialGradient id="lamp"><stop offset="0" stop-color="#FFE9B0" stop-opacity=".95"/><stop offset=".35" stop-color="#FFC857" stop-opacity=".35"/><stop offset="1" stop-color="#FFC857" stop-opacity="0"/></radialGradient>
<clipPath id="clip"><rect width="1280" height="400" rx="24"/></clipPath>
</defs>
<g clip-path="url(#clip)"><rect width="1280" height="400" fill="url(#bg)"/>
<circle cx="415" cy="29" r="1.1" fill="#fff" opacity="0.24"/>
<circle cx="686" cy="69" r="0.6" fill="#fff" opacity="0.45"/>
<circle cx="48" cy="82" r="0.6" fill="#fff" opacity="0.25"/>
<circle cx="543" cy="157" r="0.6" fill="#fff" opacity="0.31"/>
<circle cx="803" cy="180" r="1.0" fill="#fff" opacity="0.40"/>
<circle cx="1250" cy="9" r="1.3" fill="#fff" opacity="0.34"/>
<circle cx="185" cy="22" r="0.8" fill="#fff" opacity="0.61"/>
<circle cx="231" cy="111" r="1.1" fill="#fff" opacity="0.39"/>
<circle cx="701" cy="12" r="0.6" fill="#fff" opacity="0.30"/>
<circle cx="871" cy="81" r="0.8" fill="#fff" opacity="0.49"/>
<circle cx="580" cy="57" r="1.2" fill="#fff" opacity="0.55"/>
<circle cx="312" cy="109" r="1.0" fill="#fff" opacity="0.64"/>
<circle cx="934" cy="55" r="1.4" fill="#fff" opacity="0.26"/>
<circle cx="535" cy="144" r="0.6" fill="#fff" opacity="0.44"/>
<circle cx="50" cy="127" r="1.2" fill="#fff" opacity="0.49"/>
<circle cx="1121" cy="60" r="1.1" fill="#fff" opacity="0.50"/>
<circle cx="742" cy="87" r="1.3" fill="#fff" opacity="0.67"/>
<circle cx="607" cy="126" r="0.6" fill="#fff" opacity="0.55"/>
<circle cx="828" cy="189" r="1.2" fill="#fff" opacity="0.34"/>
<circle cx="494" cy="127" r="0.5" fill="#fff" opacity="0.43"/>
<circle cx="215" cy="22" r="0.6" fill="#fff" opacity="0.58"/>
<circle cx="166" cy="47" r="0.9" fill="#fff" opacity="0.64"/>
<circle cx="103" cy="85" r="1.0" fill="#fff" opacity="0.64"/>
<circle cx="1049" cy="164" r="0.8" fill="#fff" opacity="0.41"/>
<circle cx="459" cy="168" r="1.4" fill="#fff" opacity="0.28"/>
<circle cx="226" cy="44" r="0.7" fill="#fff" opacity="0.44"/>
<circle cx="754" cy="50" r="0.5" fill="#fff" opacity="0.41"/>
<circle cx="473" cy="108" r="1.4" fill="#fff" opacity="0.55"/>
<circle cx="660" cy="117" r="1.1" fill="#fff" opacity="0.23"/>
<circle cx="1151" cy="148" r="1.3" fill="#fff" opacity="0.60"/>
<circle cx="502" cy="76" r="0.6" fill="#fff" opacity="0.52"/>
<circle cx="80" cy="13" r="0.7" fill="#fff" opacity="0.28"/>
<circle cx="435" cy="10" r="0.5" fill="#fff" opacity="0.28"/>
<circle cx="130" cy="69" r="0.5" fill="#fff" opacity="0.64"/>
<circle cx="786" cy="28" r="0.7" fill="#fff" opacity="0.37"/>
<circle cx="466" cy="23" r="1.3" fill="#fff" opacity="0.70"/>
<circle cx="596" cy="92" r="0.6" fill="#fff" opacity="0.25"/>
<circle cx="439" cy="50" r="1.2" fill="#fff" opacity="0.28"/>
<circle cx="30" cy="181" r="1.0" fill="#fff" opacity="0.27"/>
<circle cx="695" cy="5" r="1.0" fill="#fff" opacity="0.69"/>
<circle cx="1105" cy="132" r="0.7" fill="#fff" opacity="0.38"/>
<circle cx="214" cy="147" r="1.0" fill="#fff" opacity="0.59"/>
<circle cx="422" cy="42" r="1.2" fill="#fff" opacity="0.69"/>
<circle cx="1091" cy="153" r="1.2" fill="#fff" opacity="0.57"/>
<circle cx="290" cy="98" r="0.8" fill="#fff" opacity="0.21"/>
<circle cx="36" cy="53" r="0.7" fill="#fff" opacity="0.55"/>
<circle cx="1224" cy="85" r="1.3" fill="#fff" opacity="0.69"/>
<circle cx="1222" cy="69" r="0.7" fill="#fff" opacity="0.31"/>
<circle cx="252" cy="39" r="1.1" fill="#fff" opacity="0.65"/>
<circle cx="1076" cy="91" r="1.1" fill="#fff" opacity="0.60"/>
<circle cx="109" cy="126" r="1.3" fill="#fff" opacity="0.59"/>
<circle cx="960" cy="91" r="0.7" fill="#fff" opacity="0.59"/>
<circle cx="426" cy="152" r="1.4" fill="#fff" opacity="0.40"/>
<circle cx="514" cy="180" r="1.2" fill="#fff" opacity="0.29"/>
<circle cx="163" cy="29" r="1.3" fill="#fff" opacity="0.60"/>
<circle cx="187" cy="157" r="1.4" fill="#fff" opacity="0.53"/>
<circle cx="449" cy="104" r="0.6" fill="#fff" opacity="0.21"/>
<circle cx="1243" cy="123" r="1.0" fill="#fff" opacity="0.67"/>
<circle cx="555" cy="166" r="1.2" fill="#fff" opacity="0.31"/>
<circle cx="322" cy="56" r="0.7" fill="#fff" opacity="0.49"/>
<circle cx="332" cy="80" r="0.6" fill="#fff" opacity="0.66"/>
<circle cx="453" cy="87" r="1.0" fill="#fff" opacity="0.65"/>
<circle cx="538" cy="174" r="1.0" fill="#fff" opacity="0.47"/>
<circle cx="670" cy="4" r="0.9" fill="#fff" opacity="0.29"/>
<circle cx="5" cy="152" r="0.7" fill="#fff" opacity="0.44"/>
<circle cx="928" cy="106" r="0.8" fill="#fff" opacity="0.46"/>
<circle cx="711" cy="149" r="0.6" fill="#fff" opacity="0.48"/>
<circle cx="318" cy="53" r="1.2" fill="#fff" opacity="0.45"/>
<circle cx="719" cy="144" r="1.3" fill="#fff" opacity="0.42"/>
<circle cx="784" cy="96" r="1.0" fill="#fff" opacity="0.55"/>
<rect x="560" y="135" width="45" height="115" fill="#0C1226"/>
<rect x="566" y="191" width="4" height="5" fill="#2DD4BF" opacity=".7"/>
<rect x="576" y="215" width="4" height="5" fill="#93C5FD" opacity=".7"/>
<rect x="576" y="239" width="4" height="5" fill="#2DD4BF" opacity=".7"/>
<rect x="586" y="143" width="4" height="5" fill="#93C5FD" opacity=".7"/>
<rect x="586" y="155" width="4" height="5" fill="#2DD4BF" opacity=".7"/>
<rect x="596" y="179" width="4" height="5" fill="#FDE68A" opacity=".7"/>
<rect x="596" y="191" width="4" height="5" fill="#2DD4BF" opacity=".7"/>
<rect x="611" y="146" width="56" height="104" fill="#0C1226"/>
<rect x="617" y="238" width="4" height="5" fill="#FDE68A" opacity=".7"/>
<rect x="627" y="178" width="4" height="5" fill="#FDE68A" opacity=".7"/>
<rect x="637" y="190" width="4" height="5" fill="#93C5FD" opacity=".7"/>
<rect x="637" y="214" width="4" height="5" fill="#2DD4BF" opacity=".7"/>
<rect x="637" y="238" width="4" height="5" fill="#FDE68A" opacity=".7"/>
<rect x="647" y="178" width="4" height="5" fill="#93C5FD" opacity=".7"/>
<rect x="647" y="202" width="4" height="5" fill="#93C5FD" opacity=".7"/>
<rect x="657" y="178" width="4" height="5" fill="#2DD4BF" opacity=".7"/>
<rect x="657" y="190" width="4" height="5" fill="#93C5FD" opacity=".7"/>
<rect x="673" y="122" width="39" height="128" fill="#0C1226"/>
<rect x="679" y="130" width="4" height="5" fill="#FDE68A" opacity=".7"/>
<rect x="699" y="130" width="4" height="5" fill="#FDE68A" opacity=".7"/>
<rect x="699" y="190" width="4" height="5" fill="#93C5FD" opacity=".7"/>
<rect x="718" y="208" width="61" height="42" fill="#0C1226"/>
<rect x="724" y="240" width="4" height="5" fill="#FDE68A" opacity=".7"/>
<rect x="764" y="240" width="4" height="5" fill="#93C5FD" opacity=".7"/>
<rect x="791" y="171" width="38" height="79" fill="#0C1226"/>
<rect x="807" y="179" width="4" height="5" fill="#93C5FD" opacity=".7"/>
<rect x="817" y="179" width="4" height="5" fill="#FDE68A" opacity=".7"/>
<rect x="831" y="186" width="63" height="64" fill="#0C1226"/>
<rect x="847" y="206" width="4" height="5" fill="#93C5FD" opacity=".7"/>
<rect x="847" y="230" width="4" height="5" fill="#FDE68A" opacity=".7"/>
<rect x="867" y="194" width="4" height="5" fill="#FDE68A" opacity=".7"/>
<rect x="867" y="206" width="4" height="5" fill="#2DD4BF" opacity=".7"/>
<rect x="877" y="242" width="4" height="5" fill="#FDE68A" opacity=".7"/>
<rect x="899" y="135" width="34" height="115" fill="#0C1226"/>
<rect x="905" y="155" width="4" height="5" fill="#2DD4BF" opacity=".7"/>
<rect x="905" y="167" width="4" height="5" fill="#93C5FD" opacity=".7"/>
<rect x="905" y="227" width="4" height="5" fill="#FDE68A" opacity=".7"/>
<rect x="915" y="143" width="4" height="5" fill="#FDE68A" opacity=".7"/>
<rect x="915" y="167" width="4" height="5" fill="#93C5FD" opacity=".7"/>
<rect x="925" y="215" width="4" height="5" fill="#FDE68A" opacity=".7"/>
<rect x="935" y="130" width="61" height="120" fill="#0C1226"/>
<rect x="941" y="210" width="4" height="5" fill="#FDE68A" opacity=".7"/>
<rect x="941" y="234" width="4" height="5" fill="#2DD4BF" opacity=".7"/>
<rect x="951" y="150" width="4" height="5" fill="#2DD4BF" opacity=".7"/>
<rect x="951" y="162" width="4" height="5" fill="#2DD4BF" opacity=".7"/>
<rect x="951" y="186" width="4" height="5" fill="#93C5FD" opacity=".7"/>
<rect x="951" y="210" width="4" height="5" fill="#2DD4BF" opacity=".7"/>
<rect x="961" y="186" width="4" height="5" fill="#93C5FD" opacity=".7"/>
<rect x="961" y="198" width="4" height="5" fill="#93C5FD" opacity=".7"/>
<rect x="961" y="222" width="4" height="5" fill="#2DD4BF" opacity=".7"/>
<rect x="961" y="234" width="4" height="5" fill="#FDE68A" opacity=".7"/>
<rect x="981" y="210" width="4" height="5" fill="#FDE68A" opacity=".7"/>
<rect x="981" y="234" width="4" height="5" fill="#2DD4BF" opacity=".7"/>
<rect x="1003" y="139" width="53" height="111" fill="#0C1226"/>
<rect x="1009" y="183" width="4" height="5" fill="#93C5FD" opacity=".7"/>
<rect x="1019" y="159" width="4" height="5" fill="#93C5FD" opacity=".7"/>
<rect x="1029" y="195" width="4" height="5" fill="#2DD4BF" opacity=".7"/>
<rect x="1039" y="159" width="4" height="5" fill="#93C5FD" opacity=".7"/>
<rect x="1039" y="195" width="4" height="5" fill="#93C5FD" opacity=".7"/>
<rect x="1039" y="207" width="4" height="5" fill="#93C5FD" opacity=".7"/>
<rect x="1039" y="219" width="4" height="5" fill="#FDE68A" opacity=".7"/>
<rect x="1049" y="147" width="4" height="5" fill="#2DD4BF" opacity=".7"/>
<rect x="1059" y="146" width="54" height="104" fill="#0C1226"/>
<rect x="1075" y="166" width="4" height="5" fill="#FDE68A" opacity=".7"/>
<rect x="1075" y="190" width="4" height="5" fill="#2DD4BF" opacity=".7"/>
<rect x="1085" y="178" width="4" height="5" fill="#2DD4BF" opacity=".7"/>
<rect x="1085" y="190" width="4" height="5" fill="#93C5FD" opacity=".7"/>
<rect x="1095" y="238" width="4" height="5" fill="#FDE68A" opacity=".7"/>
<rect x="1124" y="151" width="43" height="99" fill="#0C1226"/>
<rect x="1130" y="195" width="4" height="5" fill="#93C5FD" opacity=".7"/>
<rect x="1130" y="207" width="4" height="5" fill="#FDE68A" opacity=".7"/>
<rect x="1130" y="243" width="4" height="5" fill="#2DD4BF" opacity=".7"/>
<rect x="1140" y="195" width="4" height="5" fill="#2DD4BF" opacity=".7"/>
<rect x="1160" y="171" width="4" height="5" fill="#2DD4BF" opacity=".7"/>
<rect x="1160" y="207" width="4" height="5" fill="#FDE68A" opacity=".7"/>
<rect x="1160" y="243" width="4" height="5" fill="#FDE68A" opacity=".7"/>
<rect x="1174" y="162" width="57" height="88" fill="#0C1226"/>
<rect x="1180" y="242" width="4" height="5" fill="#FDE68A" opacity=".7"/>
<rect x="1190" y="170" width="4" height="5" fill="#FDE68A" opacity=".7"/>
<rect x="1190" y="182" width="4" height="5" fill="#93C5FD" opacity=".7"/>
<rect x="1190" y="206" width="4" height="5" fill="#93C5FD" opacity=".7"/>
<rect x="1210" y="194" width="4" height="5" fill="#FDE68A" opacity=".7"/>
<rect x="1210" y="218" width="4" height="5" fill="#FDE68A" opacity=".7"/>
<rect x="1220" y="206" width="4" height="5" fill="#93C5FD" opacity=".7"/>
<rect x="1220" y="230" width="4" height="5" fill="#93C5FD" opacity=".7"/>
<rect x="1220" y="242" width="4" height="5" fill="#FDE68A" opacity=".7"/>
<rect x="1243" y="157" width="68" height="93" fill="#0C1226"/>
<rect x="1249" y="213" width="4" height="5" fill="#2DD4BF" opacity=".7"/>
<rect x="1249" y="225" width="4" height="5" fill="#2DD4BF" opacity=".7"/>
<rect x="1259" y="237" width="4" height="5" fill="#93C5FD" opacity=".7"/>
<rect x="1279" y="165" width="4" height="5" fill="#FDE68A" opacity=".7"/>
<rect x="1279" y="189" width="4" height="5" fill="#FDE68A" opacity=".7"/>
<rect x="1289" y="165" width="4" height="5" fill="#93C5FD" opacity=".7"/>
<rect x="1299" y="165" width="4" height="5" fill="#FDE68A" opacity=".7"/>
<rect x="1299" y="201" width="4" height="5" fill="#2DD4BF" opacity=".7"/>
<polygon points="890,250 930,250 1480,400 420,400" fill="url(#road)"/>
<rect x="560" y="248" width="720" height="4" fill="#3A4466"/>
<polygon points="902,272 932,272 1240,400 700,400" fill="url(#lane)"/>
<line x1="902" y1="272" x2="700" y2="400" stroke="#EF4444" stroke-width="7" stroke-dasharray="18 12" stroke-linecap="round"/>
<line x1="932" y1="272" x2="1240" y2="400" stroke="#3B82F6" stroke-width="7" stroke-dasharray="18 12" stroke-linecap="round"/>
<line x1="640" y1="120" x2="640" y2="252" stroke="#2B3552" stroke-width="3.0"/>
<circle cx="640" cy="120" r="46" fill="url(#lamp)"/><circle cx="640" cy="120" r="4.0" fill="#FFF5D6"/>
<line x1="760" y1="150" x2="760" y2="252" stroke="#2B3552" stroke-width="2.4"/>
<circle cx="760" cy="150" r="37" fill="url(#lamp)"/><circle cx="760" cy="150" r="3.2" fill="#FFF5D6"/>
<line x1="1180" y1="90" x2="1180" y2="252" stroke="#2B3552" stroke-width="3.6"/>
<circle cx="1180" cy="90" r="55" fill="url(#lamp)"/><circle cx="1180" cy="90" r="4.8" fill="#FFF5D6"/>
<line x1="1040" y1="140" x2="1040" y2="252" stroke="#2B3552" stroke-width="2.4"/>
<circle cx="1040" cy="140" r="37" fill="url(#lamp)"/><circle cx="1040" cy="140" r="3.2" fill="#FFF5D6"/>
<rect x="900" y="262" width="76" height="50" rx="8" fill="#C9CED8"/><rect x="910" y="267" width="56" height="16" rx="4" fill="#2A3148"/><rect x="903" y="288" width="18" height="8" rx="3" fill="#FF3B3B" filter="url(#glow)"/><rect x="955" y="288" width="18" height="8" rx="3" fill="#FF3B3B" filter="url(#glow)"/><rect x="926" y="296" width="24" height="8" rx="1" fill="#F4F4F4"/>
<rect x="894" y="256" width="88" height="62" fill="none" stroke="#EF4444" stroke-width="3"/><rect x="894" y="228" width="118" height="26" fill="#000"/><text x="900" y="247" font-family="Consolas, 'SF Mono', Menlo, 'DejaVu Sans Mono', monospace" font-size="17" font-weight="700" fill="#EF4444">car 10.5m</text><rect x="923" y="293" width="30" height="14" fill="none" stroke="#FACC15" stroke-width="2.5"/>
<rect x="1090" y="230" width="120" height="118" rx="6" fill="#D9D4CC"/><line x1="1150" y1="236" x2="1150" y2="330" stroke="#A8A29A" stroke-width="3"/><rect x="1090" y="330" width="120" height="18" fill="#3A3A3A"/><rect x="1096" y="334" width="18" height="9" rx="3" fill="#FF3B3B" filter="url(#glow)"/><rect x="1186" y="334" width="18" height="9" rx="3" fill="#FF3B3B" filter="url(#glow)"/><rect x="1134" y="333" width="32" height="11" fill="#F4F4F4"/><rect x="1084" y="224" width="132" height="132" fill="none" stroke="#EF4444" stroke-width="3"/><rect x="1084" y="196" width="132" height="26" fill="#000"/><text x="1090" y="215" font-family="Consolas, 'SF Mono', Menlo, 'DejaVu Sans Mono', monospace" font-size="17" font-weight="700" fill="#EF4444">truck 4.1m</text><rect x="1130" y="329" width="40" height="19" fill="none" stroke="#FACC15" stroke-width="2.5"/><rect x="1128" y="310" width="40" height="16" fill="#000"/><text x="1131" y="322" font-family="Consolas, 'SF Mono', Menlo, 'DejaVu Sans Mono', monospace" font-size="12" font-weight="700" fill="#FACC15">Plate</text>
<linearGradient id="fade" x1="0" x2="1"><stop offset=".35" stop-color="#070B18"/><stop offset=".62" stop-color="#070B18" stop-opacity="0"/></linearGradient>
<rect width="1280" height="400" fill="url(#fade)"/>
<text x="64" y="120" font-family="'Segoe UI', Inter, 'Helvetica Neue', Arial, sans-serif" font-size="20" font-weight="600" letter-spacing="4" fill="#22D3EE">REAL-TIME · LOW-LIGHT · COMPUTER VISION</text>
<text x="60" y="200" font-family="'Segoe UI', Inter, 'Helvetica Neue', Arial, sans-serif" font-size="78" font-weight="800" fill="#fff">NightDrive <tspan fill="#22C55E">ADAS</tspan></text>
<text x="64" y="246" font-family="'Segoe UI', Inter, 'Helvetica Neue', Arial, sans-serif" font-size="24" fill="#C7CFE0">Lane, vehicle, distance and license plate detection</text>
<text x="64" y="278" font-family="'Segoe UI', Inter, 'Helvetica Neue', Arial, sans-serif" font-size="24" fill="#C7CFE0">for night-time dashcam video</text>
<rect x="64" y="310" width="68" height="34" rx="17" fill="#22C55E" fill-opacity=".14" stroke="#22C55E" stroke-opacity=".7"/><circle cx="79" cy="327" r="4.5" fill="#22C55E"/><text x="90" y="333" font-family="'Segoe UI', Inter, 'Helvetica Neue', Arial, sans-serif" font-size="16" font-weight="600" fill="#E6EAF2">Lane</text>
<rect x="142.0" y="310" width="110" height="34" rx="17" fill="#EF4444" fill-opacity=".14" stroke="#EF4444" stroke-opacity=".7"/><circle cx="157.0" cy="327" r="4.5" fill="#EF4444"/><text x="168.0" y="333" font-family="'Segoe UI', Inter, 'Helvetica Neue', Arial, sans-serif" font-size="16" font-weight="600" fill="#E6EAF2">Vehicles</text>
<rect x="262.0" y="310" width="110" height="34" rx="17" fill="#60A5FA" fill-opacity=".14" stroke="#60A5FA" stroke-opacity=".7"/><circle cx="277.0" cy="327" r="4.5" fill="#60A5FA"/><text x="288.0" y="333" font-family="'Segoe UI', Inter, 'Helvetica Neue', Arial, sans-serif" font-size="16" font-weight="600" fill="#E6EAF2">Distance</text>
<rect x="382.0" y="310" width="152" height="34" rx="17" fill="#FACC15" fill-opacity=".14" stroke="#FACC15" stroke-opacity=".7"/><circle cx="397.0" cy="327" r="4.5" fill="#FACC15"/><text x="408.0" y="333" font-family="'Segoe UI', Inter, 'Helvetica Neue', Arial, sans-serif" font-size="16" font-weight="600" fill="#E6EAF2">Plates + OCR</text>
</g></svg>